<svg xmlns="http://www.w3.org/2000/svg" xmlns:xlink="http://www.w3.org/1999/xlink" width="1024" zoomAndPan="magnify" viewBox="0 0 768 767.999994" height="1024" preserveAspectRatio="xMidYMid meet" version="1.0"><defs><clipPath id="21fb345f2d"><path d="M 101.089844 126 L 666.589844 126 L 666.589844 601.460938 L 101.089844 601.460938 Z M 101.089844 126 " clip-rule="nonzero"/></clipPath></defs><rect x="-76.8" width="921.6" fill="#ffffff" y="-76.799999" height="921.599993" fill-opacity="1"/><rect x="-76.8" width="921.6" fill="#ffffff" y="-76.799999" height="921.599993" fill-opacity="1"/><g clip-path="url(#21fb345f2d)"><path fill="#000000" d="M 426.855469 588.964844 L 426.855469 473.269531 L 327.285156 473.269531 L 327.285156 588.957031 C 327.285156 589.777344 327.207031 590.59375 327.046875 591.398438 C 326.886719 592.207031 326.648438 592.992188 326.335938 593.753906 C 326.019531 594.511719 325.636719 595.234375 325.179688 595.921875 C 324.722656 596.605469 324.207031 597.238281 323.625 597.820312 C 323.046875 598.40625 322.414062 598.925781 321.730469 599.382812 C 321.050781 599.84375 320.328125 600.230469 319.570312 600.546875 C 318.8125 600.863281 318.03125 601.105469 317.222656 601.269531 C 316.417969 601.429688 315.605469 601.515625 314.78125 601.515625 L 183.238281 601.515625 C 182.414062 601.515625 181.597656 601.433594 180.792969 601.273438 C 179.984375 601.113281 179.203125 600.875 178.441406 600.558594 C 177.679688 600.242188 176.960938 599.855469 176.273438 599.398438 C 175.589844 598.941406 174.957031 598.421875 174.375 597.835938 C 173.792969 597.253906 173.273438 596.621094 172.816406 595.9375 C 172.359375 595.25 171.972656 594.527344 171.65625 593.765625 C 171.34375 593.007812 171.105469 592.222656 170.941406 591.414062 C 170.78125 590.605469 170.699219 589.789062 170.699219 588.964844 L 170.699219 361.25 C 170.699219 360.640625 170.757812 360.039062 170.878906 359.441406 C 170.996094 358.84375 171.171875 358.261719 171.40625 357.699219 C 171.636719 357.136719 171.925781 356.601562 172.261719 356.097656 C 172.601562 355.589844 172.984375 355.121094 173.414062 354.691406 C 173.84375 354.257812 174.3125 353.875 174.820312 353.535156 C 175.324219 353.199219 175.859375 352.910156 176.421875 352.679688 C 176.984375 352.445312 177.5625 352.269531 178.160156 352.152344 C 178.757812 352.03125 179.359375 351.972656 179.96875 351.972656 C 180.578125 351.972656 181.179688 352.03125 181.777344 352.152344 C 182.371094 352.269531 182.953125 352.445312 183.515625 352.679688 C 184.078125 352.910156 184.609375 353.199219 185.117188 353.535156 C 185.621094 353.875 186.089844 354.257812 186.519531 354.691406 C 186.953125 355.121094 187.335938 355.589844 187.675781 356.097656 C 188.011719 356.601562 188.296875 357.136719 188.53125 357.699219 C 188.761719 358.261719 188.9375 358.84375 189.058594 359.441406 C 189.175781 360.039062 189.234375 360.640625 189.234375 361.25 L 189.234375 582.949219 L 308.75 582.949219 L 308.75 467.265625 C 308.75 466.441406 308.832031 465.625 308.992188 464.816406 C 309.152344 464.007812 309.390625 463.222656 309.707031 462.464844 C 310.023438 461.703125 310.410156 460.980469 310.867188 460.292969 C 311.324219 459.609375 311.84375 458.976562 312.425781 458.394531 C 313.007812 457.808594 313.640625 457.289062 314.324219 456.832031 C 315.007812 456.375 315.730469 455.988281 316.492188 455.671875 C 317.25 455.355469 318.035156 455.117188 318.84375 454.957031 C 319.648438 454.796875 320.464844 454.714844 321.289062 454.714844 L 432.910156 454.714844 C 433.730469 454.714844 434.546875 454.796875 435.355469 454.957031 C 436.160156 455.117188 436.945312 455.355469 437.707031 455.671875 C 438.464844 455.988281 439.1875 456.375 439.871094 456.832031 C 440.554688 457.289062 441.1875 457.808594 441.769531 458.394531 C 442.351562 458.976562 442.871094 459.609375 443.332031 460.292969 C 443.789062 460.980469 444.175781 461.703125 444.488281 462.464844 C 444.804688 463.222656 445.042969 464.007812 445.203125 464.816406 C 445.363281 465.625 445.445312 466.441406 445.445312 467.265625 L 445.445312 582.949219 L 564.960938 582.949219 L 564.960938 361.25 C 564.960938 360.640625 565.019531 360.039062 565.140625 359.441406 C 565.257812 358.84375 565.433594 358.261719 565.667969 357.699219 C 565.898438 357.136719 566.183594 356.601562 566.523438 356.097656 C 566.859375 355.589844 567.246094 355.121094 567.675781 354.691406 C 568.105469 354.257812 568.574219 353.875 569.078125 353.535156 C 569.585938 353.199219 570.121094 352.910156 570.683594 352.679688 C 571.242188 352.445312 571.824219 352.269531 572.421875 352.152344 C 573.015625 352.03125 573.621094 351.972656 574.230469 351.972656 C 574.835938 351.972656 575.441406 352.03125 576.035156 352.152344 C 576.632812 352.269531 577.214844 352.445312 577.773438 352.679688 C 578.335938 352.910156 578.871094 353.199219 579.378906 353.535156 C 579.882812 353.875 580.351562 354.257812 580.78125 354.691406 C 581.210938 355.121094 581.597656 355.589844 581.933594 356.097656 C 582.273438 356.601562 582.558594 357.136719 582.792969 357.699219 C 583.023438 358.261719 583.199219 358.84375 583.320312 359.441406 C 583.4375 360.039062 583.496094 360.640625 583.496094 361.25 L 583.496094 588.964844 C 583.496094 589.789062 583.414062 590.605469 583.253906 591.414062 C 583.09375 592.222656 582.855469 593.007812 582.539062 593.765625 C 582.222656 594.527344 581.835938 595.25 581.378906 595.9375 C 580.921875 596.621094 580.402344 597.253906 579.820312 597.835938 C 579.238281 598.421875 578.605469 598.941406 577.921875 599.398438 C 577.238281 599.855469 576.515625 600.242188 575.753906 600.558594 C 574.996094 600.875 574.210938 601.113281 573.402344 601.273438 C 572.597656 601.433594 571.78125 601.515625 570.957031 601.515625 L 439.402344 601.515625 C 438.578125 601.515625 437.765625 601.4375 436.957031 601.277344 C 436.148438 601.113281 435.363281 600.878906 434.605469 600.5625 C 433.84375 600.246094 433.121094 599.859375 432.433594 599.402344 C 431.75 598.945312 431.117188 598.425781 430.535156 597.839844 C 429.953125 597.257812 429.429688 596.625 428.972656 595.941406 C 428.515625 595.253906 428.128906 594.53125 427.8125 593.769531 C 427.496094 593.007812 427.257812 592.222656 427.097656 591.414062 C 426.9375 590.605469 426.855469 589.789062 426.855469 588.964844 Z M 650.222656 370.28125 C 650.675781 370.734375 651.171875 371.140625 651.710938 371.492188 C 652.25 371.84375 652.820312 372.136719 653.421875 372.371094 C 654.023438 372.605469 654.640625 372.773438 655.273438 372.878906 C 655.910156 372.984375 656.550781 373.023438 657.195312 372.992188 C 657.835938 372.964844 658.46875 372.871094 659.09375 372.710938 C 659.71875 372.546875 660.316406 372.324219 660.894531 372.039062 C 661.472656 371.753906 662.015625 371.410156 662.519531 371.011719 C 663.023438 370.613281 663.484375 370.164062 663.898438 369.667969 C 664.308594 369.175781 664.667969 368.644531 664.96875 368.074219 C 665.269531 367.503906 665.511719 366.910156 665.6875 366.289062 C 665.867188 365.667969 665.980469 365.039062 666.023438 364.394531 C 666.070312 363.753906 666.050781 363.113281 665.964844 362.472656 C 665.878906 361.835938 665.726562 361.210938 665.507812 360.605469 C 665.292969 359.996094 665.015625 359.417969 664.679688 358.871094 C 664.339844 358.320312 663.953125 357.8125 663.507812 357.34375 C 663.066406 356.875 662.578125 356.457031 662.050781 356.09375 L 391.597656 129.898438 C 391.039062 129.429688 390.441406 129.015625 389.8125 128.652344 C 389.179688 128.289062 388.519531 127.980469 387.835938 127.734375 C 387.148438 127.484375 386.449219 127.296875 385.730469 127.167969 C 385.011719 127.042969 384.289062 126.980469 383.558594 126.980469 C 382.828125 126.980469 382.105469 127.042969 381.386719 127.167969 C 380.671875 127.296875 379.96875 127.484375 379.28125 127.734375 C 378.597656 127.980469 377.9375 128.289062 377.308594 128.652344 C 376.675781 129.015625 376.078125 129.429688 375.519531 129.898438 L 105.070312 356.09375 C 104.601562 356.484375 104.175781 356.914062 103.796875 357.390625 C 103.414062 357.863281 103.082031 358.371094 102.796875 358.910156 C 102.515625 359.449219 102.289062 360.011719 102.117188 360.597656 C 101.945312 361.179688 101.832031 361.777344 101.777344 362.382812 C 101.722656 362.992188 101.730469 363.597656 101.792969 364.203125 C 101.859375 364.808594 101.980469 365.402344 102.164062 365.984375 C 102.34375 366.566406 102.582031 367.125 102.875 367.660156 C 103.164062 368.191406 103.507812 368.695312 103.894531 369.160156 C 104.285156 369.628906 104.71875 370.054688 105.191406 370.4375 C 105.664062 370.820312 106.171875 371.152344 106.710938 371.433594 C 107.25 371.71875 107.8125 371.945312 108.394531 372.117188 C 108.980469 372.289062 109.574219 372.402344 110.179688 372.457031 C 110.789062 372.511719 111.394531 372.503906 112 372.441406 C 112.605469 372.375 113.195312 372.25 113.777344 372.070312 C 114.359375 371.886719 114.917969 371.652344 115.449219 371.359375 C 115.984375 371.066406 116.484375 370.726562 116.953125 370.335938 L 383.558594 147.347656 Z M 472.167969 157.292969 L 542.378906 157.292969 L 542.378906 227.574219 C 542.378906 228.183594 542.4375 228.785156 542.554688 229.382812 C 542.671875 229.980469 542.847656 230.558594 543.082031 231.125 C 543.316406 231.6875 543.601562 232.21875 543.9375 232.726562 C 544.277344 233.234375 544.660156 233.703125 545.089844 234.132812 C 545.523438 234.5625 545.988281 234.949219 546.496094 235.285156 C 547 235.625 547.535156 235.910156 548.097656 236.144531 C 548.660156 236.378906 549.238281 236.554688 549.835938 236.671875 C 550.433594 236.789062 551.035156 236.851562 551.644531 236.851562 C 552.253906 236.851562 552.855469 236.789062 553.453125 236.671875 C 554.050781 236.554688 554.628906 236.378906 555.191406 236.144531 C 555.753906 235.910156 556.289062 235.625 556.792969 235.285156 C 557.300781 234.949219 557.769531 234.5625 558.199219 234.132812 C 558.628906 233.703125 559.011719 233.234375 559.351562 232.726562 C 559.6875 232.21875 559.972656 231.6875 560.207031 231.125 C 560.441406 230.558594 560.617188 229.980469 560.734375 229.382812 C 560.855469 228.785156 560.914062 228.183594 560.914062 227.574219 L 560.914062 151.289062 C 560.914062 150.464844 560.832031 149.648438 560.671875 148.839844 C 560.507812 148.03125 560.269531 147.246094 559.957031 146.484375 C 559.640625 145.726562 559.253906 145.003906 558.796875 144.316406 C 558.339844 143.632812 557.820312 143 557.238281 142.417969 C 556.65625 141.832031 556.023438 141.3125 555.339844 140.855469 C 554.652344 140.398438 553.933594 140.011719 553.171875 139.695312 C 552.410156 139.378906 551.628906 139.140625 550.820312 138.980469 C 550.011719 138.820312 549.199219 138.738281 548.375 138.738281 L 472.167969 138.738281 C 471.558594 138.738281 470.957031 138.796875 470.359375 138.914062 C 469.761719 139.035156 469.183594 139.210938 468.621094 139.441406 C 468.058594 139.675781 467.523438 139.960938 467.019531 140.300781 C 466.511719 140.636719 466.042969 141.023438 465.613281 141.453125 C 465.183594 141.882812 464.796875 142.351562 464.460938 142.859375 C 464.121094 143.367188 463.835938 143.898438 463.601562 144.464844 C 463.371094 145.027344 463.195312 145.605469 463.074219 146.203125 C 462.957031 146.800781 462.898438 147.40625 462.898438 148.015625 C 462.898438 148.625 462.957031 149.226562 463.074219 149.824219 C 463.195312 150.421875 463.371094 151.003906 463.601562 151.566406 C 463.835938 152.128906 464.121094 152.664062 464.460938 153.167969 C 464.796875 153.675781 465.183594 154.144531 465.613281 154.574219 C 466.042969 155.007812 466.511719 155.390625 467.019531 155.730469 C 467.523438 156.066406 468.058594 156.355469 468.621094 156.585938 C 469.183594 156.820312 469.761719 156.996094 470.359375 157.113281 C 470.957031 157.234375 471.558594 157.292969 472.167969 157.292969 Z M 472.167969 157.292969 " fill-opacity="1" fill-rule="nonzero"/></g><path stroke-linecap="butt" transform="matrix(0.75, 0, 0, 0.75, 182.623352, 621.057109)" fill="none" stroke-linejoin="miter" d="M 0.00219685 2.001979 L 522.653264 2.001979 " stroke="#000000" stroke-width="4" stroke-opacity="1" stroke-miterlimit="4"/></svg>