<svg xmlns="http://www.w3.org/2000/svg" xmlns:xlink="http://www.w3.org/1999/xlink" width="1024" zoomAndPan="magnify" viewBox="0 0 768 767.999994" height="1024" preserveAspectRatio="xMidYMid meet" version="1.0"><defs><clipPath id="bf42ae7d72"><path d="M 201.925781 173 L 629.425781 173 L 629.425781 595 L 201.925781 595 Z M 201.925781 173 " clip-rule="nonzero"/></clipPath></defs><rect x="-76.8" width="921.6" fill="#ffffff" y="-76.799999" height="921.599993" fill-opacity="1"/><rect x="-76.8" width="921.6" fill="#ffffff" y="-76.799999" height="921.599993" fill-opacity="1"/><g clip-path="url(#bf42ae7d72)"><path fill="#000000" d="M 201.925781 541.078125 C 201.925781 559.554688 211.445312 576.742188 227.132812 586.539062 C 242.820312 596.300781 262.449219 597.3125 279.042969 589.1875 C 290.304688 583.644531 534.445312 464.066406 599.5 432.203125 C 617.839844 423.242188 629.484375 404.554688 629.484375 384.125 C 629.484375 363.695312 617.839844 345.011719 599.5 336.050781 C 511.996094 293.167969 358.703125 218.109375 279.042969 179.0625 C 262.449219 170.941406 242.820312 171.953125 227.132812 181.714844 C 211.445312 191.507812 201.925781 208.695312 201.925781 227.175781 C 201.925781 288.707031 201.925781 388.519531 201.925781 469.15625 C 201.925781 479.023438 209.910156 487.003906 219.777344 487.003906 C 229.644531 487.003906 237.625 479.023438 237.625 469.15625 C 237.625 388.519531 237.625 288.707031 237.625 227.175781 C 237.625 221.003906 240.800781 215.285156 246.027344 212.007812 C 251.257812 208.765625 257.8125 208.417969 263.320312 211.136719 C 343.015625 250.183594 496.308594 325.242188 583.777344 368.089844 C 589.914062 371.085938 593.785156 377.328125 593.785156 384.125 C 593.785156 390.925781 589.914062 397.164062 583.777344 400.164062 C 518.757812 431.992188 274.617188 551.605469 263.320312 557.113281 C 257.8125 559.832031 251.257812 559.484375 246.027344 556.242188 C 240.800781 552.964844 237.625 547.25 237.625 541.078125 C 237.625 531.246094 229.644531 523.226562 219.777344 523.226562 C 209.910156 523.226562 201.925781 531.246094 201.925781 541.078125 " fill-opacity="1" fill-rule="evenodd"/></g><path stroke-linecap="butt" transform="matrix(0.75, 0, 0, 0.75, 156.462682, 631.830637)" fill="none" stroke-linejoin="miter" d="M -0.00232554 2.001859 L 630.284164 2.001859 " stroke="#000000" stroke-width="4" stroke-opacity="1" stroke-miterlimit="4"/></svg>